P3
6 6
255
255 0 0  255 205 0  101 255 0  0 255 102  0 204 255  0 0 255  
255 147 0  55 255 0  0 255 139  0 241 255  0 151 255  0 0 255  
255 186 0  0 255 56  0 252 255  0 160 255  0 166 255  0 0 255  
255 246 0  0 255 73  0 255 237  0 223 255  0 255 219  0 0 255  
164 255 0  35 255 0  6 255 0  6 255 0  0 255 12  0 0 255  
0 0 255  0 0 255  0 0 255  0 0 255  0 0 255  0 0 255  
